<?xml version="1.0" encoding="utf-8"?>
<svg id="master-artboard" viewBox="0 0 128 128" version="1.1" xmlns="http://www.w3.org/2000/svg" x="0px" y="0px" style="enable-background:new 0 0 1096 780;" width="128px" height="128px"><defs><linearGradient id="gradient-0" gradientUnits="userSpaceOnUse" x1="980" y1="283.9999694824219" x2="980" y2="457.9999694824219" gradientTransform="matrix(0.8943783113326149, -0.4473110505904274, 0.44716775828394395, 0.894091902108028, -101.29356475353185, 486.8707351810834)">
                <stop offset="0" style="stop-color: #777777"/>
                <stop offset="1" style="stop-color: #444444"/>
              </linearGradient></defs><rect id="ee-background" x="0" y="0" width="128" height="128" style="fill: white; fill-opacity: 0; pointer-events: none;"/>



<g transform="matrix(0.9965720772743224, 0, 0, 0.9965720772743224, -455.7219669346877, -609.3902103428909)"><g><g transform="matrix(1, 0, 0, 1, 7.82684814116044, 7.104370322323177)"><path d="M 562.5999755859375 646.9000244140625 L 545.5999755859375 629.9000244140625 L 518.7000122070312 656.7000122070312 L 491.8999938964844 629.9000244140625 L 474.8999938964844 646.9000244140625 L 501.70001220703125 673.7999877929688 L 474.8999938964844 700.5999755859375 L 491.8999938964844 717.5999755859375 L 518.7000122070312 690.7999877929688 L 545.5999755859375 717.5999755859375 L 562.5999755859375 700.5999755859375 L 535.7999877929688 673.7999877929688 Z" class="st0" style="fill: rgb(0, 0, 0); fill-opacity: 0.16;" transform="matrix(1, 0, 0, 1, 0, 0)"/></g><path d="M 562.5999755859375 646.9000244140625 L 545.5999755859375 629.9000244140625 L 518.7000122070312 656.7000122070312 L 491.8999938964844 629.9000244140625 L 474.8999938964844 646.9000244140625 L 501.70001220703125 673.7999877929688 L 474.8999938964844 700.5999755859375 L 491.8999938964844 717.5999755859375 L 518.7000122070312 690.7999877929688 L 545.5999755859375 717.5999755859375 L 562.5999755859375 700.5999755859375 L 535.7999877929688 673.7999877929688 Z" class="st0" style="fill: rgb(255, 255, 255); fill-opacity: 1;" transform="matrix(0.9999999859116286, 0, 0, 0.9999999859116286, 0, -5.684341886080802e-14)"/></g></g></svg>