<?xml version="1.0" encoding="utf-8"?>
<svg id="master-artboard" viewBox="0 0 128 128" version="1.1" xmlns="http://www.w3.org/2000/svg" x="0px" y="0px" width="128px" height="128px" enable-background="new 0 0 1400 980"><defs><style id="ee-google-fonts">@import url(https://fonts.googleapis.com/css?family=Trocchi:400);</style></defs><linearGradient id="SVGID_1_" gradientUnits="userSpaceOnUse" x1="535" y1="-1.39" x2="535" y2="779.4758">
	<stop offset="0" style="stop-color:#FFFFFF"/>
	<stop offset="1" style="stop-color:#000000"/>
</linearGradient><g transform="matrix(1.3028466701507568, 0, 0, 1.3028466701507568, -26.296531677246094, -36.14784622192383)"><g transform="matrix(0.9999999859116286, 0, 0, 0.9999999859116286, -751.9111222192968, -147.21027929811717)">
		
		<g><path d="M 864.2000122070312 302.6000061035156 L 838.7000122070312 277.1000061035156 L 848.9000244140625 266.8999938964844 L 864.2000122070312 282.20001220703125 L 922.7999877929688 223.60000610351562 L 932.9000244140625 233.8000030517578 Z" class="st1" style="fill: rgb(0, 0, 0); fill-opacity: 0.14;" transform="matrix(0.9999999859116288, 0, 0, 0.9999999859116288, -60.28063498448432, -35.95902964476301)"/></g>
	</g><g transform="matrix(0.9999999859116286, 0, 0, 0.9999999859116286, -8.456127047614984, -21.14031761903746)"><g><g transform="matrix(1, 0, 0, 1, -12.684190329245155, 5.637417924109002)"><path d="M 864.2000122070312 302.6000061035156 L 838.7000122070312 277.1000061035156 L 848.9000244140625 266.8999938964844 L 864.2000122070312 282.20001220703125 L 922.7999877929688 223.60000610351562 L 932.9000244140625 233.8000030517578 Z" class="st1" style="fill: rgb(255, 255, 255);" transform="matrix(0.9999997474930529, 0, 0, 0.9999997474930529, -798.2853281089285, -171.5319037113245)"/></g></g></g></g><linearGradient id="SVGID_8_" gradientUnits="userSpaceOnUse" x1="885.8164" y1="192" x2="885.8164" y2="344.5127">
		<stop offset="0" style="stop-color:#FFFFFF"/>
		<stop offset="1" style="stop-color:#000000"/>
	</linearGradient></svg>