<?xml version="1.0" encoding="utf-8"?>
<svg id="master-artboard" viewBox="0 0 128 128" version="1.1" xmlns="http://www.w3.org/2000/svg" x="0px" y="0px" style="enable-background:new 0 0 649 485;" width="128px" height="128px"><rect id="ee-background" x="0" y="0" width="128" height="128" style="fill: white; fill-opacity: 0; pointer-events: none;"/>

<linearGradient id="SVGID_1_" gradientUnits="userSpaceOnUse" x1="324.4938" y1="995.3072" x2="324.4938" y2="-222.5641" gradientTransform="matrix(1 0 0 -1 0 474)">
		<stop offset="0" style="stop-color:#DAE7A2"/>
		<stop offset="1" style="stop-color:#8CC63F"/>
	</linearGradient>


<g transform="matrix(1.1840856075286865, 0, 0, 1.1840856075286865, -4.6436858036301345, -14.781490325927736)"><rect id="rect-1" x="0" y="0" width="128" height="128" style="fill: white; fill-opacity: 0; pointer-events: none;"/><path d="M775.604,812.313l39.913-64.104h-23.396c-5.736-52.562-50.378-93.608-104.44-93.608&#10;&#9;&#9;c-57.94,0-105.078,47.139-105.078,105.078c0,57.94,47.138,105.078,105.078,105.078c33.391,0,63.166-15.677,82.426-40.034&#10;&#9;&#9;l-19.92-31.991c-11.893,22.399-35.425,37.714-62.506,37.714c-39.021,0-70.767-31.745-70.767-70.767&#10;&#9;&#9;c0-39.021,31.746-70.767,70.767-70.767c35.116,0,64.326,25.713,69.823,59.297h-21.815L775.604,812.313z" transform="matrix(0.4129087626934052, 0, 0, 0.4129087626934052, -225.5248496322559, -242.49565633263822)" style="fill-opacity: 0.22;"/><path d="M775.604,812.313l39.913-64.104h-23.396c-5.736-52.562-50.378-93.608-104.44-93.608&#10;&#9;&#9;c-57.94,0-105.078,47.139-105.078,105.078c0,57.94,47.138,105.078,105.078,105.078c33.391,0,63.166-15.677,82.426-40.034&#10;&#9;&#9;l-19.92-31.991c-11.893,22.399-35.425,37.714-62.506,37.714c-39.021,0-70.767-31.745-70.767-70.767&#10;&#9;&#9;c0-39.021,31.746-70.767,70.767-70.767c35.116,0,64.326,25.713,69.823,59.297h-21.815L775.604,812.313z" transform="matrix(0.4129085838794708, 0, 0, 0.4129085838794708, -234.0032958984375, -247.32179258845065)" style="fill: rgb(255, 255, 255);"/></g></svg>